<svg xmlns="http://www.w3.org/2000/svg" viewBox="0 0 500 500"><defs><style>.cls-1{fill:#24582f; 
    opacity: 0;}.cls-2{fill:#fbeaa3;}.cls-3{fill:#1e491d;}.cls-4{fill:#e5dda3;}.cls-5{fill:#b9ff6b;}.cls-6{fill:#8dff6b;}.cls-7{fill:#6ae56b;}.cls-8{opacity:0;}</style></defs><title>moripa-logo</title><g id="レイヤー_3" data-name="レイヤー 3"><rect class="cls-1" width="500" height="500"/></g><g id="レイヤー_2" data-name="レイヤー 2"><path class="cls-2" d="M300.27,521.42a790.27,790.27,0,0,0-18-127.25L210.36,380c-16.67,42.48-33.18,96.57-43.77,141Z"/><path class="cls-3" d="M321.27,521.42q-1.49-25.17-4.57-50.22c-2.26-18.31-5-36.56-8.38-54.69q-2.64-14-5.77-27.92a21,21,0,0,0-14.67-14.67l-24.38-4.8-38.7-7.62-8.86-1.75a15.79,15.79,0,0,0-8.37-.37,15.5,15.5,0,0,0-7.81,2.49l-4.25,3.28a20.83,20.83,0,0,0-5.4,9.27c-7,17.75-13.26,35.76-19.15,53.9q-9.09,28-16.81,56.49Q150,500,146.34,515.37a21.17,21.17,0,0,0,0,11.17,15.88,15.88,0,0,0,3.75,7.14,15.92,15.92,0,0,0,5.9,5.41,21,21,0,0,0,10.6,2.87l13.33,0,32,.11,38.45.14,33.45.12c5.41,0,10.82.08,16.23,0h.22a23.26,23.26,0,0,0,14.85-6.15,23.2,23.2,0,0,0,6.15-14.85c-.24-5.43-2-11.06-6.15-14.84a21.87,21.87,0,0,0-14.85-6.16l-13.33,0-32-.11-38.45-.14L183,500c-5.41,0-10.82-.09-16.23-.05h-.22l20.25,26.58c4.43-18.55,9.41-37,14.8-55.27q8.33-28.26,18-56.11,5.22-14.88,11-29.58l-25.84,14.67,24.39,4.8,38.7,7.62,8.86,1.75-14.67-14.67q6,26.5,10.12,53.38,1.17,7.59,2.19,15.19l-.75-5.58q3.92,29.24,5.66,58.68a16,16,0,0,0,1.81,8.1,18.93,18.93,0,0,0,11.1,11.1,15.86,15.86,0,0,0,8.09,1.8c5.44-.24,11.07-2,14.85-6.15C318.76,532.31,321.6,527,321.27,521.42Z"/><path class="cls-2" d="M300.27,521.42a790.27,790.27,0,0,0-18-127.25L210.36,380c-16.67,42.48-33.18,96.57-43.77,141Z"/><path class="cls-4" d="M204,396.7c-1.73,4.71-3.44,9.52-5.14,14.39,10.77,6.65,29,17,47.85,36.93,26.63,28.05,35.17,54.47,44.22,73.37l9.31,0a791.94,791.94,0,0,0-12.93-103.16C255.84,402.35,222.7,396.15,204,396.7Z"/><path class="cls-5" d="M228.57,120.19c25.82-66.49,120.29-68.09,109.05-4.68,73.69-53.65,137.73,52.61,37.45,99.15,82.88-2.41,12.39,113.56-6,111.63,57.62,6,32.34,79.16-13.3,85.94-51.95,5.12-97.75-25.45-151.68-24.21-32.9-3.34-62.8,6.74-96.82.19-49.84-7.77-41.2-95,8.86-88-34.7-30.86-8.12-92.79,39.19-95C139.52,164.8,182.28,85.62,228.57,120.19Z"/><path class="cls-3" d="M248.82,125.77c.31-.79.63-1.58,1-2.36l-2.12,5a84.19,84.19,0,0,1,10.78-18.48l-3.28,4.25A81.15,81.15,0,0,1,269.44,99.9l-4.25,3.28a79.55,79.55,0,0,1,17.66-10.33l-5,2.11a73,73,0,0,1,18.39-5l-5.58.75a59.65,59.65,0,0,1,15.51-.07l-5.58-.75a45.83,45.83,0,0,1,11.56,3.08l-5-2.12a37.42,37.42,0,0,1,8.06,4.66l-4.25-3.28a33,33,0,0,1,5.71,5.68l-3.29-4.25a32.64,32.64,0,0,1,4.18,7.15l-2.12-5a37.49,37.49,0,0,1,2.52,9.42l-.75-5.58a51,51,0,0,1-.15,13.35l.75-5.58c-.11.86-.25,1.72-.4,2.57l-.75,5.58.75,5.59,2.12,5A15.81,15.81,0,0,0,324.9,132a10.31,10.31,0,0,0,4.63,2.7,20.93,20.93,0,0,0,10.88,1.44,15.69,15.69,0,0,0,7.81-2.49,86.8,86.8,0,0,1,17.1-9.79l-5,2.12a65,65,0,0,1,16.29-4.51l-5.58.75a53.73,53.73,0,0,1,14.05,0l-5.58-.75a49.22,49.22,0,0,1,12.16,3.3l-5-2.12a48.19,48.19,0,0,1,10.68,6.23l-4.25-3.28a48.23,48.23,0,0,1,8.6,8.65L398.38,130a49.77,49.77,0,0,1,6.28,10.79l-2.11-5A50.76,50.76,0,0,1,406,148.49l-.75-5.58a52.11,52.11,0,0,1,0,13.78l.75-5.59a57.1,57.1,0,0,1-3.9,14.23l2.11-5a66.7,66.7,0,0,1-8.58,14.6l3.28-4.25a86.27,86.27,0,0,1-15.36,15.19l4.25-3.29a123.09,123.09,0,0,1-23.34,14l-4.25,3.28a15.91,15.91,0,0,0-4.34,6.76,10.41,10.41,0,0,0-1.43,5.3,15.94,15.94,0,0,0,.37,8.38,25,25,0,0,0,5.4,9.26,23.4,23.4,0,0,0,14.85,6.15,73.46,73.46,0,0,1,11.58.54l-5.58-.75a43.19,43.19,0,0,1,11.05,2.89l-5-2.12a30.26,30.26,0,0,1,6.48,3.74l-4.25-3.28a25.44,25.44,0,0,1,4.44,4.42l-3.28-4.25a26.17,26.17,0,0,1,3.35,5.77l-2.11-5a33.48,33.48,0,0,1,2.21,8.4l-.75-5.58a52.35,52.35,0,0,1-.17,13.41l.75-5.58a99.59,99.59,0,0,1-7.23,25.07l2.12-5a148.88,148.88,0,0,1-14,25.77c-1.41,2.06-2.87,4.09-4.4,6.07l3.29-4.25a67.34,67.34,0,0,1-11.61,12.24l4.25-3.29a20.33,20.33,0,0,1-4.33,2.66l5-2.12a8.52,8.52,0,0,1-2.09.62l5.58-.75a5.44,5.44,0,0,1-1.21,0,20.26,20.26,0,0,0-19.19,12.91,15.75,15.75,0,0,0-1.81,8.09c.24,5.43,2,11.06,6.15,14.85l4.25,3.28a20.87,20.87,0,0,0,10.6,2.87l1.8.21-5.58-.75a50.16,50.16,0,0,1,12.76,3.36l-5-2.12a35.22,35.22,0,0,1,7.52,4.35l-4.25-3.28a29.25,29.25,0,0,1,5.22,5.21L378.29,350a28.88,28.88,0,0,1,3.56,6.1l-2.12-5a32.29,32.29,0,0,1,2.2,8.2l-.75-5.58a40.14,40.14,0,0,1-.07,10.33l.75-5.58a53,53,0,0,1-3.64,13.12l2.12-5a62.57,62.57,0,0,1-7.95,13.6l3.28-4.25a62.19,62.19,0,0,1-11,11.06l4.25-3.29a55.25,55.25,0,0,1-12,7.1l5-2.12a49.29,49.29,0,0,1-11.68,3.3l5.59-.75a138,138,0,0,1-31.6-.81l5.58.75c-26.34-3.6-51.41-12.95-77.3-18.65-15-3.29-30.42-5.6-45.79-5.53-3.59,0-7.14-.39-10.73-.54s-7.34-.16-11-.07c-7.16.18-14.3.73-21.43,1.33-16.47,1.37-33,2.76-49.47.6l5.59.75c-5.41-.74-10.89-1.57-16-3.67l5,2.12a37.26,37.26,0,0,1-8.08-4.69l4.25,3.28a38,38,0,0,1-6.55-6.56l3.29,4.25a42.77,42.77,0,0,1-5.53-9.53l2.12,5a51.93,51.93,0,0,1-3.45-12.83L95.5,352a58.25,58.25,0,0,1,0-15.27l-.76,5.58a54.73,54.73,0,0,1,3.72-13.77l-2.12,5a45.31,45.31,0,0,1,5.65-9.8L98.72,328a37.09,37.09,0,0,1,6.57-6.62L101,324.69a33.4,33.4,0,0,1,7-4.12l-5,2.12a33.57,33.57,0,0,1,8.46-2.3l-5.58.75a39.53,39.53,0,0,1,10,.06l-5.59-.75.3,0,5.58.75a15.75,15.75,0,0,0,8.09-1.81,10.34,10.34,0,0,0,4.64-2.7,15.79,15.79,0,0,0,5.4-5.89,24.86,24.86,0,0,0,2.87-10.6A23.4,23.4,0,0,0,131,285.39a49.81,49.81,0,0,1-6.08-6.49l3.28,4.25a47.18,47.18,0,0,1-6-10.32l2.12,5a48.91,48.91,0,0,1-3.26-12.13l.75,5.58a54.13,54.13,0,0,1,.06-14.16l-.75,5.58a61.63,61.63,0,0,1,4.15-15.13l-2.11,5a64.76,64.76,0,0,1,8.35-14.32l-3.28,4.25a62.07,62.07,0,0,1,10.9-10.89l-4.25,3.28a57.67,57.67,0,0,1,12.6-7.37l-5,2.12a55.18,55.18,0,0,1,13.88-3.75l-5.58.75c1.53-.2,3.07-.34,4.61-.41a20.9,20.9,0,0,0,10.6-2.87,15.81,15.81,0,0,0,5.89-5.41,15.8,15.8,0,0,0,3.76-7.14,21.17,21.17,0,0,0,0-11.17,49.9,49.9,0,0,1-2.83-11.22l.75,5.58a71.45,71.45,0,0,1,.16-18.48l-.75,5.59A94.79,94.79,0,0,1,179.61,157l-2.12,5a90,90,0,0,1,11.23-19.46l-3.28,4.25a64.65,64.65,0,0,1,11.47-11.67l-4.25,3.28a46.19,46.19,0,0,1,9.9-5.86l-5,2.12a36.3,36.3,0,0,1,9.09-2.51l-5.58.75a33.34,33.34,0,0,1,8.7,0l-5.58-.75a36.91,36.91,0,0,1,9,2.5l-5-2.11a48,48,0,0,1,9.8,5.7,15.69,15.69,0,0,0,7.81,2.49,15.89,15.89,0,0,0,8.37-.37c4.87-1.34,10.15-5.11,12.55-9.65,2.58-4.88,3.87-10.78,2.12-16.19l-2.12-5a21.09,21.09,0,0,0-7.53-7.54,61.13,61.13,0,0,0-18.48-9.14,63.37,63.37,0,0,0-12.07-2.07,32.43,32.43,0,0,0-6.46,0,65.08,65.08,0,0,0-11.57,1.89A73,73,0,0,0,179.82,97c-5.55,2.63-10.56,6.55-15.16,10.55-4.91,4.29-8.89,9.4-12.79,14.6a85.72,85.72,0,0,0-8,12.89c-5.38,10.64-9.63,22.11-11.34,33.95-1.05,7.23-2,14.41-1.39,21.72.52,6.76,1.45,13.75,3.92,20.12l20.25-26.58a77.6,77.6,0,0,0-35.66,10.32,83.85,83.85,0,0,0-14.31,10.76,88.62,88.62,0,0,0-11.62,13.72,63.16,63.16,0,0,0-6.38,11.15,88.83,88.83,0,0,0-5.94,16.63,77.05,77.05,0,0,0,0,35.13,65.59,65.59,0,0,0,7.23,17.64A82.69,82.69,0,0,0,96,309.52a49.4,49.4,0,0,0,5.35,5.57L121.75,280c-5.26-.71-10.29-1.5-15.57-.88-4.9.58-9.62,1.15-14.19,3a69.58,69.58,0,0,0-8.79,4,69.27,69.27,0,0,0-7.61,5.56,37.58,37.58,0,0,0-6.2,6.15,68.08,68.08,0,0,0-7.94,11.58A80.28,80.28,0,0,0,56,322.88a88.73,88.73,0,0,0-2.57,14.39,58,58,0,0,0-.39,9.59,88.54,88.54,0,0,0,1.89,14.69,51.13,51.13,0,0,0,2.76,8.89c1.85,4.5,3.67,8.94,6.46,12.94a60.84,60.84,0,0,0,9.07,10.8c7.41,6.61,16.27,11.7,26.05,13.82a166.73,166.73,0,0,0,42.81,3.25c13-.58,25.9-2.18,38.88-2.73a168.64,168.64,0,0,1,19.34.17c6.35.46,12.71.28,19.07.79,3,.24,6,.57,9,1l-5.59-.75c23.89,3.22,46.73,11.05,70,16.85a249.23,249.23,0,0,0,40.05,6.82,131.32,131.32,0,0,0,17.52.28,74,74,0,0,0,18.11-2.78c18.31-5.68,33.6-18.37,43.69-34.55a90.35,90.35,0,0,0,6.65-13.8,53.81,53.81,0,0,0,2.9-9.21,63.28,63.28,0,0,0,.08-28.55,29.94,29.94,0,0,0-1.3-4.16,66.91,66.91,0,0,0-3.85-8.61A45.92,45.92,0,0,0,408,321a58.17,58.17,0,0,0-27.37-14c-3.79-.79-7.66-1.25-11.5-1.66v42a20,20,0,0,0,8.6-1.28,36.9,36.9,0,0,0,8.63-4.15A71.35,71.35,0,0,0,399,330.65a152.61,152.61,0,0,0,21.37-31.47,177.27,177.27,0,0,0,9.28-21.53A92.8,92.8,0,0,0,434,261a106.14,106.14,0,0,0,1.49-13.42,76.29,76.29,0,0,0-1.12-13,33.72,33.72,0,0,0-1.66-6.85,48.69,48.69,0,0,0-5.1-10.89C423,210,416.94,204,409.34,200.41a63.7,63.7,0,0,0-12.94-4.73,90.78,90.78,0,0,0-15.4-2c-2-.09-3.95-.09-5.93,0l10.6,39.14a141.48,141.48,0,0,0,29.17-18.5,99.23,99.23,0,0,0,19.58-21.67,64.38,64.38,0,0,0,5.23-9.21,91.74,91.74,0,0,0,5.42-14.06,88,88,0,0,0,2.42-14.68,51.64,51.64,0,0,0,.09-8.88,83.69,83.69,0,0,0-2.14-14.09,82.77,82.77,0,0,0-4.83-12.9,65.24,65.24,0,0,0-12.55-18.13A78.72,78.72,0,0,0,417.67,92a46.8,46.8,0,0,0-7.26-4.43,77.94,77.94,0,0,0-13-5.19A80.25,80.25,0,0,0,383.19,80a51.76,51.76,0,0,0-9.48,0,92,92,0,0,0-15.46,2.45,102.51,102.51,0,0,0-15,5.59,82.36,82.36,0,0,0-10.86,5.77c-1.83,1.15-3.62,2.37-5.37,3.64l30.85,23.72a99,99,0,0,0,1.66-14.26,75.93,75.93,0,0,0-1.19-13.36,37.35,37.35,0,0,0-1.78-7.22,59.56,59.56,0,0,0-4.95-11c-7.4-12.13-19.31-20.54-32.86-24.5a49.46,49.46,0,0,0-7-1.47,94.36,94.36,0,0,0-12.66-1.23,62.75,62.75,0,0,0-7.63.45,121,121,0,0,0-13.12,2.09,99.81,99.81,0,0,0-20.42,7.63C251,61.61,245,66,239,70.78A80.16,80.16,0,0,0,225.77,84.1c-5.21,6.6-9.94,13.3-13.43,21-1.43,3.13-2.77,6.32-4,9.52a15.94,15.94,0,0,0-.38,8.38,15.64,15.64,0,0,0,2.5,7.81,15.89,15.89,0,0,0,5.41,5.89,15.8,15.8,0,0,0,7.14,3.76c5.37,1.22,11.41,1,16.18-2.12l4.25-3.28A21,21,0,0,0,248.82,125.77Z"/><path class="cls-5" d="M228.57,120.19c25.82-66.49,120.29-68.09,109.05-4.68,73.69-53.65,137.73,52.61,37.45,99.15,82.88-2.41,12.39,113.56-6,111.63,57.62,6,32.34,79.16-13.3,85.94-51.95,5.12-97.75-25.45-151.68-24.21-32.9-3.34-62.8,6.74-96.82.19-49.84-7.77-41.2-95,8.86-88-34.7-30.86-8.12-92.79,39.19-95C139.52,164.8,182.28,85.62,228.57,120.19Z"/><path class="cls-6" d="M375.07,214.66C470.64,170.31,417,71.69,347.91,109c-7,55.66-17.42,117.75-66.66,166.36-61,60.28-141.16,59.75-207.21,66.73-.84,20.89,9.64,42.43,33.27,46.12,34,6.55,63.92-3.53,96.82-.19,53.93-1.24,99.73,29.33,151.67,24.21,45.65-6.78,70.93-79.89,13.3-85.94C387.46,328.22,458,212.25,375.07,214.66Z"/><path class="cls-7" d="M297.59,264.15A130.11,130.11,0,0,0,322.1,292.4,14.57,14.57,0,0,1,327.37,304c0,9.36-7.49,18.89-13.95,18.89a6.35,6.35,0,0,1-5.28-2.55c-4.77-6-10-18.56-12.25-28.09,0,0,3.4,22.47,5.44,31a5.78,5.78,0,0,1,.17,1.7c0,5.79-7.49,8.51-15,8.51-8,0-16-2.89-16-8.34a7.23,7.23,0,0,1,.34-1.87c2.55-8.34,4.76-29.78,4.76-29.78-2.38,10.38-8.68,22.12-13.95,27.91a8.85,8.85,0,0,1-6,2.38c-6.81,0-14.47-8.34-14.47-17.19v-1.19a7.7,7.7,0,0,1-4.59,1.7c-2,0-3.75-1-4.77-3.74-2.38-6-5.1-10.22-7.49-14.64,0,0,2.39,21.27,4.77,34.21a4.71,4.71,0,0,1,.17,1.53c0,6.13-7.49,9-15,9s-14.8-2.89-14.8-8.68a7.62,7.62,0,0,1,.17-1.87c3.4-12.77,4.76-29.44,4.76-29.44-2.55,8.5-6.81,19.74-10.72,24.84a7.11,7.11,0,0,1-5.79,3.07c-6.47,0-13.27-9.53-13.27-18.21a12,12,0,0,1,3.91-9.36c7.49-6.64,17-18,24.34-29.62h-19.4c-5.28,0-7.83-4.59-7.83-9.19s2.55-9.19,7.83-9.19h20.93V239c0-3.91,4.77-5.78,9.7-5.78,4.77,0,9.53,1.87,9.53,5.78v6.81h18.72c3.92,0,5.79,4.6,5.79,9.19s-1.87,9.19-5.79,9.19H226.28a181.73,181.73,0,0,1,22.12,19.06,8.49,8.49,0,0,1,2,5.62,14.16,14.16,0,0,1-.51,3.74,126.75,126.75,0,0,0,24.68-28.42H256.74c-4.08,0-6.13-4.59-6.13-9.19s2-9.19,6.13-9.19h19.74v-7.32c0-3.91,4.77-5.95,9.7-5.95,4.77,0,9.54,2,9.54,5.95v7.32H318c5.28,0,7.83,4.6,7.83,9.19s-2.55,9.19-7.83,9.19Zm-22.3-56.67a197.54,197.54,0,0,0,42.89,14c4.94,1,7,4.09,7,7.32,0,4.94-4.6,10.55-10.55,10.55a11.67,11.67,0,0,1-2.39-.34,172.21,172.21,0,0,1-51.39-21.44v17.87c0,5.1-5.11,7.66-10.22,7.66s-10.21-2.56-10.21-7.66v-17.7A171.88,171.88,0,0,1,189.34,239a11.48,11.48,0,0,1-2.38.34c-6,0-10.55-5.61-10.55-10.55,0-3.23,2-6.3,7-7.32a202.15,202.15,0,0,0,43.06-14H187.13a8.25,8.25,0,0,1-8.68-8.51c0-4.09,2.89-8.34,8.68-8.34H240.4v-3.75c0-3.91,5.11-5.95,10.21-5.95s10.22,2,10.22,5.95v3.75h52.93c5.95,0,9,4.25,9,8.34,0,4.25-3.07,8.51-9,8.51Z"/><g class="cls-8"><path d="M499.58,0V500H-.42V0h500m1-1h-502V501h502V-1Z"/></g></g></svg>